<?xml version="1.0" encoding="utf-8"?>
<svg id="master-artboard" viewBox="0 0 1400 980" version="1.1" xmlns="http://www.w3.org/2000/svg" x="0px" y="0px" style="enable-background:new 0 0 1400 980;" width="1400px" height="980px"><rect id="ee-background" x="0" y="0" width="1400" height="980" style="fill: white; fill-opacity: 0; pointer-events: none;"/>


<path class="st19" d="M578.6,495.7L578.6,495.7l-0.1,13.3c0,0.2,0,0.4,0,0.6c0-0.2,0-0.4,0-0.6V495.7z" style="fill: rgb(255, 255, 255);" transform="matrix(1, 0, 0, 1, 0, 3.552713678800501e-14)"/><path d="M 679.2000122070312 495.70001220703125 L 679.2000122070312 495.70001220703125 L 679.2000122070312 509 L 679.2000122070312 509 L 679.2000122070312 509 Z" class="st19" style="fill: rgb(255, 255, 255);" transform="matrix(1, 0, 0, 1, 0, 3.552713678800501e-14)"/><path class="st25" d="M174.7,601.4C174.7,601.4,174.7,601.4,174.7,601.4C174.7,601.4,174.7,601.4,174.7,601.4z" style="fill: rgb(254, 203, 124);" transform="matrix(1, 0, 0, 1, 0, 2.1316282072803006e-14)"/><path class="st25" d="M177.3,596.7C177.3,596.7,177.3,596.7,177.3,596.7C177.3,596.7,177.3,596.7,177.3,596.7z" style="fill: rgb(254, 203, 124);" transform="matrix(1, 0, 0, 1, 0, 2.1316282072803006e-14)"/><path class="st25" d="M154.7,620.8C154.7,620.8,154.7,620.8,154.7,620.8C154.7,620.8,154.7,620.8,154.7,620.8z" style="fill: rgb(254, 203, 124);" transform="matrix(1, 0, 0, 1, 0, 2.1316282072803006e-14)"/><path class="st25" d="M125.2,638.1C125.2,638.1,125.2,638.1,125.2,638.1C125.2,638.1,125.2,638.1,125.2,638.1z" style="fill: rgb(254, 203, 124);" transform="matrix(1, 0, 0, 1, 0, 2.1316282072803006e-14)"/><linearGradient id="SVGID_9_" gradientUnits="userSpaceOnUse" x1="596.084" y1="605.9894" x2="615.9346" y2="605.9894">
				<stop offset="0" style="stop-color:#0A6F39"/>
				<stop offset="1" style="stop-color:#0A6F39"/>
			</linearGradient><linearGradient id="SVGID_10_" gradientUnits="userSpaceOnUse" x1="598.645" y1="605.9856" x2="615.2163" y2="605.9856">
				<stop offset="0" style="stop-color:#0A6F39"/>
				<stop offset="1" style="stop-color:#0A6F39"/>
			</linearGradient><radialGradient id="SVGID_11_" cx="-296.0424" cy="1750.9907" r="65.1669" gradientTransform="matrix(9.120000e-02 0 0 9.120000e-02 633.1182 439.3424)" gradientUnits="userSpaceOnUse">
				<stop offset="5.618000e-03" style="stop-color:#CECECF"/>
				<stop offset="0.2978" style="stop-color:#C6C6C8"/>
				<stop offset="0.6573" style="stop-color:#B1B3B4"/>
				<stop offset="1" style="stop-color:#A4A5A7"/>
			</radialGradient><radialGradient id="SVGID_12_" cx="-321.5451" cy="1625.4323" r="75.2287" gradientTransform="matrix(7.900000e-02 0 0 7.890000e-02 641.4355 445.9824)" gradientUnits="userSpaceOnUse">
				<stop offset="5.618000e-03" style="stop-color:#CECECF"/>
				<stop offset="0.2978" style="stop-color:#C6C6C8"/>
				<stop offset="0.6573" style="stop-color:#B1B3B4"/>
				<stop offset="1" style="stop-color:#A4A5A7"/>
			</radialGradient><path d="M 617.2999877929688 590.9000244140625 L 617.2999877929688 590.9000244140625 L 617.2999877929688 590.9000244140625 Z" class="st77" style="fill: none;" transform="matrix(1, 0, 0, 1, 0, 3.552713678800501e-14)"/><path d="M 618.5 593.9000244140625 L 618.5 593.9000244140625 L 618.5 593.9000244140625 Z" class="st77" style="fill: none;" transform="matrix(1, 0, 0, 1, 0, 3.552713678800501e-14)"/>
<path d="M 130.84811401367188 336.839111328125" style="fill: rgb(0, 0, 0); fill-opacity: 1; stroke: rgb(0, 0, 0); stroke-opacity: 1; stroke-width: 10; paint-order: stroke;"/><path d="M 484.3645324707031 797.4817504882812" style="fill: rgb(0, 0, 0); fill-opacity: 1; stroke: rgb(0, 0, 0); stroke-opacity: 1; stroke-width: 10; paint-order: fill;"/><path class="st3" d="M1256.2,584.1c-1.2-7.4-8.3-12.4-15.7-11.2c-7.4,1.2-12.4,8.3-11.2,15.7c0.1,0.8,10.2,63.9-13.5,93.8V457.7&#10;&#9;&#9;c0-10.2-8.3-18.5-18.5-18.5c-10.2,0-18.5,8.3-18.5,18.5v91.6c-14-15.8-12.2-43.5-12.1-45.2c0.6-7.5-5-14.1-12.5-14.7&#10;&#9;&#9;c-7.5-0.6-14.1,5-14.7,12.5c-1.9,23.2,4.7,65.8,39.3,80.5v92.2c-5.7,0.7-9.2-1-11.4-2.6c-14.7-9.8-20.5-42.4-21.4-53&#10;&#9;&#9;c-0.6-7.5-7.2-13.1-14.7-12.5c-7.5,0.6-13.1,7.2-12.5,14.7c0.5,5.5,5.2,54.5,33.4,73.4c7.3,4.9,15.5,7.4,24.2,7.4&#10;&#9;&#9;c0.8,0,1.6-0.1,2.4-0.1v80.7c0,10.2,8.3,18.5,18.5,18.5c10.2,0,18.5-8.3,18.5-18.5v-65.2C1272.9,688,1256.9,588.6,1256.2,584.1z" style="fill: rgb(6, 130, 65);" transform="matrix(1.3963982857540875, 0, 0, 1.3963982857540875, -975.4577428214537, -227.89435844350635)"/></svg>